<svg width="27" height="27" viewBox="0 0 27 27" fill="none" xmlns="http://www.w3.org/2000/svg">
<path d="M24.011 25.315C24.7311 25.315 25.315 24.7311 25.315 24.0109V2.99155C25.315 2.27122 24.7312 1.6875 24.011 1.6875H2.99156C2.27123 1.6875 1.6875 2.27122 1.6875 2.99155V24.0109C1.6875 24.731 2.27113 25.315 2.99156 25.315H24.011Z" fill="#3C5A99"/>
<path d="M17.99 25.3151V16.1652H21.0612L21.5211 12.5993H17.99V10.3228C17.99 9.29036 18.2767 8.58681 19.7571 8.58681L21.6454 8.58599V5.39665C21.3188 5.35319 20.1979 5.2561 18.8939 5.2561C16.1714 5.2561 14.3076 6.91788 14.3076 9.96961V12.5993H11.2285V16.1652H14.3076V25.3151H17.99Z" fill="white"/>
</svg>
