<svg width="120" height="120" viewBox="0 0 120 120" fill="none" xmlns="http://www.w3.org/2000/svg">
<path d="M60 78.75C70.3553 78.75 78.75 70.3553 78.75 60C78.75 49.6447 70.3553 41.25 60 41.25C49.6447 41.25 41.25 49.6447 41.25 60C41.25 70.3553 49.6447 78.75 60 78.75Z" stroke="black" stroke-width="2" stroke-miterlimit="10"/>
<path d="M80.625 16.875H39.375C26.9486 16.875 16.875 26.9486 16.875 39.375V80.625C16.875 93.0514 26.9486 103.125 39.375 103.125H80.625C93.0514 103.125 103.125 93.0514 103.125 80.625V39.375C103.125 26.9486 93.0514 16.875 80.625 16.875Z" stroke="black" stroke-width="2" stroke-linecap="round" stroke-linejoin="round"/>
<path d="M84.375 41.25C87.4816 41.25 90 38.7316 90 35.625C90 32.5184 87.4816 30 84.375 30C81.2684 30 78.75 32.5184 78.75 35.625C78.75 38.7316 81.2684 41.25 84.375 41.25Z" fill="black"/>
</svg>
