<svg width="39" height="45" viewBox="0 0 39 45" fill="none" xmlns="http://www.w3.org/2000/svg">
<rect x="37.9995" width="44" height="8.44444" transform="rotate(89.7593 37.9995 0)" fill="black"/>
<rect x="37.9995" width="44" height="8.44444" transform="rotate(89.7593 37.9995 0)" fill="black"/>
<rect x="37.9995" width="44" height="8.44444" transform="rotate(89.7593 37.9995 0)" fill="black"/>
<rect x="37.9995" width="44" height="8.44444" transform="rotate(89.7593 37.9995 0)" fill="black"/>
<rect x="8.44434" y="0.124268" width="44" height="8.44444" transform="rotate(89.7593 8.44434 0.124268)" fill="black"/>
<rect x="8.44434" y="0.124268" width="44" height="8.44444" transform="rotate(89.7593 8.44434 0.124268)" fill="black"/>
<rect x="8.44434" y="0.124268" width="44" height="8.44444" transform="rotate(89.7593 8.44434 0.124268)" fill="black"/>
<rect x="8.44434" y="0.124268" width="44" height="8.44444" transform="rotate(89.7593 8.44434 0.124268)" fill="black"/>
<rect x="23.2217" y="0.0620117" width="44" height="8.44444" transform="rotate(89.7593 23.2217 0.0620117)" fill="black"/>
<rect x="23.2217" y="0.0620117" width="44" height="8.44444" transform="rotate(89.7593 23.2217 0.0620117)" fill="black"/>
<rect x="23.2217" y="0.0620117" width="44" height="8.44444" transform="rotate(89.7593 23.2217 0.0620117)" fill="black"/>
<rect x="23.2217" y="0.0620117" width="44" height="8.44444" transform="rotate(89.7593 23.2217 0.0620117)" fill="black"/>
</svg>
