<svg width="120" height="120" viewBox="0 0 120 120" fill="none" xmlns="http://www.w3.org/2000/svg">
<path d="M41.2496 63.2214L83.3983 100.312C83.886 100.741 84.4768 101.036 85.1128 101.169C85.7488 101.301 86.4083 101.265 87.0266 101.066C87.6448 100.867 88.2007 100.51 88.6397 100.031C89.0787 99.5526 89.3858 98.9679 89.5309 98.3347L107.162 21.3976C107.315 20.7324 107.283 20.0382 107.07 19.3898C106.857 18.7415 106.471 18.1635 105.954 17.7182C105.437 17.2729 104.808 16.9772 104.135 16.8629C103.462 16.7486 102.771 16.8201 102.136 17.0696L15.6249 51.0561C14.8709 51.3523 14.2332 51.8847 13.807 52.5736C13.3808 53.2625 13.1892 54.0708 13.2608 54.8777C13.3323 55.6846 13.6633 56.4466 14.204 57.0498C14.7448 57.6529 15.4663 58.0647 16.2607 58.2236L41.2496 63.2214Z" stroke="black" stroke-width="2" stroke-linecap="round" stroke-linejoin="round"/>
<path d="M41.25 63.2211L105.053 17.1415" stroke="black" stroke-width="2" stroke-linecap="round" stroke-linejoin="round"/>
<path d="M62.3002 81.7458L47.6516 96.3944C47.1272 96.9188 46.459 97.276 45.7316 97.4207C45.0042 97.5654 44.2502 97.4911 43.5649 97.2073C42.8797 96.9234 42.2941 96.4428 41.882 95.8261C41.4699 95.2094 41.25 94.4844 41.25 93.7427V63.2217" stroke="black" stroke-width="2" stroke-linecap="round" stroke-linejoin="round"/>
</svg>
