<svg width="27" height="27" viewBox="0 0 27 27" fill="none" xmlns="http://www.w3.org/2000/svg">
<path d="M25.3136 13.7624C25.3136 12.7912 25.2332 12.0824 25.0591 11.3474H13.7422V15.7311H20.385C20.2511 16.8205 19.5279 18.4612 17.9207 19.5636L17.8982 19.7104L21.4764 22.4269L21.7243 22.4512C24.0011 20.3905 25.3136 17.3586 25.3136 13.7624Z" fill="#4285F4"/>
<path d="M13.7415 25.3125C16.9959 25.3125 19.728 24.2625 21.7236 22.4513L17.92 19.5637C16.9022 20.2593 15.5361 20.7449 13.7415 20.7449C10.554 20.7449 7.84869 18.6843 6.88431 15.8362L6.74296 15.8479L3.02229 18.6699L2.97363 18.8024C4.95575 22.6612 9.02717 25.3125 13.7415 25.3125Z" fill="#34A853"/>
<path d="M6.88485 15.8362C6.63039 15.1012 6.48312 14.3136 6.48312 13.4999C6.48312 12.6861 6.63039 11.8986 6.87146 11.1636L6.86472 11.0071L3.09742 8.13989L2.97416 8.19735C2.15723 9.79862 1.68848 11.5968 1.68848 13.4999C1.68848 15.403 2.15723 17.2011 2.97416 18.8024L6.88485 15.8362Z" fill="#FBBC05"/>
<path d="M13.7415 6.25497C16.0049 6.25497 17.5317 7.21309 18.4022 8.01377L21.804 4.75875C19.7148 2.85563 16.996 1.6875 13.7415 1.6875C9.0272 1.6875 4.95576 4.33873 2.97363 8.19745L6.87095 11.1637C7.84871 8.31562 10.5541 6.25497 13.7415 6.25497Z" fill="#EB4335"/>
</svg>
